<!-- Sourced from https://simpleicons.org/ -->

<svg role="img" viewBox="0 0 24 24" xmlns="http://www.w3.org/2000/svg">
    <title>Stadia</title>
    <path style="fill: white" d="M 6.5 10 C 11.6 7.7 17.4 7.8 22.3 10.3 c 0.3 0.2 0.7 0 0.7 -0.3 l 0.9 -2.8 c 0.1 -0.3 0 -0.7 -0.3 -0.8 C 16 2.7 7 3.6 0.3 8.6 C 0 8.8 -0.1 9.2 0.1 9.5 l 2.2 4.8 c 0.1 0.3 0.5 0.5 0.9 0.4 c 2.4 -0.9 6.2 -1.8 10 -1.3 c -2.6 0.5 -4.7 1.4 -6.3 2.4 C 6.5 15.9 6.4 16.3 6.6 16.6 L 7.9 19.6 c 0.1 0.3 0.5 0.3 0.7 0.1 c 0.5 -0.5 1.1 -0.9 1.5 -1.2 c 2.1 -1.2 5 -2.1 8.9 -1.9 C 19.3 16.7 19.5 16.5 19.6 16.2 l 1 -3 c 0.1 -0.3 0 -0.7 -0.3 -0.8 C 16.2 10 11.2 9.1 6.5 10 z" />
</svg>